<svg width="312" height="31" viewBox="0 0 312 31" fill="none" xmlns="http://www.w3.org/2000/svg">
<path d="M4.68 19V30H0.28V0.999999C3.05333 0.599999 5.98667 0.4 9.08 0.4C12.76 0.4 15.5467 1.18667 17.44 2.76C19.3333 4.30667 20.28 6.52 20.28 9.4C20.28 15.9333 16.5467 19.2 9.08 19.2C7.66667 19.2 6.2 19.1333 4.68 19ZM4.68 15.44C6.01333 15.6533 7.34667 15.76 8.68 15.76C11.0267 15.76 12.8267 15.2533 14.08 14.24C15.3333 13.2 15.96 11.72 15.96 9.8C15.96 7.88 15.3467 6.42667 14.12 5.44C12.8933 4.42667 11.08 3.92 8.68 3.92C7.16 3.92 5.82667 4.01333 4.68 4.2V15.44ZM39.2503 4.4V12.72H51.6503V16.16H39.2503V26.4H52.4503V30H34.8503V0.799999H52.4503V4.4H39.2503ZM66.6003 30L77.0003 0.799999H81.8003L92.2003 30H87.4803L84.9603 22.24H73.6803L71.1603 30H66.6003ZM74.7603 18.8H83.8803L79.3603 4.8H79.2803L74.7603 18.8ZM118.953 4C115.727 4 113.127 5.04 111.153 7.12C109.207 9.2 108.233 11.96 108.233 15.4C108.233 18.8667 109.233 21.64 111.233 23.72C113.233 25.7733 115.807 26.8 118.953 26.8C121.54 26.8 124.007 26.0667 126.353 24.6L127.753 27.88C125.087 29.56 122.02 30.4 118.553 30.4C114.1 30.4 110.513 29.0533 107.793 26.36C105.1 23.64 103.753 19.9867 103.753 15.4C103.753 10.8133 105.087 7.17333 107.753 4.48C110.42 1.76 114.02 0.4 118.553 0.4C122.02 0.4 125.087 1.24 127.753 2.92L126.353 6.2C124.007 4.73333 121.54 4 118.953 4ZM147.922 0.799999V12.72H161.522V0.799999H165.922V30H161.522V16.16H147.922V30H143.522V0.799999H147.922ZM220.543 0.799999L225.703 25.2H225.783L230.943 0.799999H236.543L241.703 25.2H241.783L246.943 0.799999H251.263L244.263 30H238.863L233.703 5.6H233.623L228.463 30H223.063L216.063 0.799999H220.543ZM267.218 30V0.799999H272.018V30H267.218ZM289.577 30V0.799999H293.897L307.577 22.6H307.657V0.799999H311.977V30H307.657L293.977 8.2H293.897V30H289.577Z" fill="white"/>
<path d="M191.588 0.4C194.574 0.4 196.881 1.14667 198.508 2.64C200.161 4.10667 200.988 6.16 200.988 8.8C200.988 11.4667 200.134 14.04 198.428 16.52C196.748 19 193.468 22.2667 188.588 26.32V26.4H200.988V30H182.588V26.4C188.028 22.08 191.694 18.7067 193.588 16.28C195.481 13.8267 196.428 11.4667 196.428 9.2C196.428 5.78667 194.614 4.08 190.988 4.08C188.561 4.08 186.028 4.96 183.388 6.72L182.188 3.2C184.934 1.33333 188.068 0.4 191.588 0.4Z" fill="url(#paint0_linear)"/>
<defs>
<linearGradient id="paint0_linear" x1="156.5" y1="-15" x2="156.5" y2="44" gradientUnits="userSpaceOnUse">
<stop stop-color="#4B7BEC"/>
<stop offset="1" stop-color="#A55EEA"/>
</linearGradient>
</defs>
</svg>
